<?xml version="1.0" encoding="UTF-8"?>
<svg version="1.1" xmlns="http://www.w3.org/2000/svg" width="60" height="60">
<path d="M0 0 C19.8 0 39.6 0 60 0 C60 19.8 60 39.6 60 60 C40.2 60 20.4 60 0 60 C0 40.2 0 20.4 0 0 Z " fill="#090909" transform="translate(0,0)"/>
<path d="M0 0 C1.36560059 0.00303635 1.36560059 0.00303635 2.75878906 0.00613403 C3.68723633 0.00517731 4.61568359 0.00422058 5.57226562 0.00323486 C7.53938871 0.00255298 9.50651403 0.00440781 11.47363281 0.00857544 C14.49581932 0.01392358 17.51785721 0.00863071 20.54003906 0.00222778 C22.44628939 0.00288856 24.35253963 0.00416972 26.25878906 0.00613403 C27.16918945 0.0041098 28.07958984 0.00208557 29.01757812 0 C35.39383938 0.02399685 35.39383938 0.02399685 36.50878906 1.13894653 C36.59654511 3.2845348 36.61574125 5.43299075 36.60644531 7.58035278 C36.60322266 8.88552856 36.6 10.19070435 36.59667969 11.53543091 C36.58832307 12.92410343 36.57985811 14.31277531 36.57128906 15.70144653 C36.56627572 17.09402309 36.56171253 18.48660135 36.55761719 19.87918091 C36.5457834 23.29914524 36.52929786 26.71902497 36.50878906 30.13894653 C35.94289062 30.34390747 35.37699219 30.54886841 34.79394531 30.76004028 C34.06046875 31.02945435 33.32699219 31.29886841 32.57128906 31.57644653 C31.84039062 31.84328247 31.10949219 32.11011841 30.35644531 32.38504028 C28.52573228 32.99281601 28.52573228 32.99281601 27.50878906 34.13894653 C25.23795573 34.13894653 22.9671224 34.13894653 20.69628906 34.13894653 C11.73089779 34.39667188 7.0814891 38.34982461 0.50878906 44.13894653 C0.17878906 44.13894653 -0.15121094 44.13894653 -0.49121094 44.13894653 C-0.82121094 41.16894653 -1.15121094 38.19894653 -1.49121094 35.13894653 C-3.47121094 34.47894653 -5.45121094 33.81894653 -7.49121094 33.13894653 C-7.51586486 28.59996948 -7.53404882 24.0610311 -7.54614258 19.52200317 C-7.55118233 17.97674888 -7.55801413 16.43149937 -7.56665039 14.88626099 C-7.5787317 12.66969625 -7.58444266 10.45319435 -7.58886719 8.23660278 C-7.59402847 7.54180313 -7.59918976 6.84700348 -7.60450745 6.13114929 C-7.6047037 4.46665323 -7.55310223 2.80229155 -7.49121094 1.13894653 C-5.54257169 -0.80969271 -2.59312374 0.00975913 0 0 Z " fill="#FDFDFD" transform="translate(9.4912109375,1.861053466796875)"/>
<path d="M0 0 C2.31 0.66 4.62 1.32 7 2 C7.33 4.97 7.66 7.94 8 11 C12.27278955 9.93180261 13.74890497 8.70452265 17.0625 5.9375 C22.1986303 2.05425324 25.62594339 1.22105291 31.98046875 1.71875 C32.64691406 1.8115625 33.31335937 1.904375 34 2 C33.76023437 2.88558594 33.76023437 2.88558594 33.515625 3.7890625 C32.48492718 8.20856983 32.61554894 11.910722 34.125 16.1875 C36.31442487 19.4716373 38.64382043 20.98629226 42 23 C42 23.33 42 23.66 42 24 C28.14 24 14.28 24 0 24 C0 16.08 0 8.16 0 0 Z " fill="#FDFDFD" transform="translate(0,36)"/>
<path d="M0 0 C3.3258409 2.062783 6.23502468 4.47004936 8 8 C8.45813548 14.07029508 7.41076984 17.18743518 3.5 21.75 C1.10492849 23.74589293 -1.20504322 24.02760197 -4.25 24.4375 C-9.1843364 23.86182742 -11.79803186 21.71753928 -15 18 C-16.23534045 14.29397865 -16.45528745 11.90246386 -16 8 C-11.98796251 1.75356625 -7.70673159 -1.51085206 0 0 Z " fill="#F4F4F4" transform="translate(50,34)"/>
<path d="M0 0 C4.62 0 9.24 0 14 0 C14 13.86 14 27.72 14 42 C12.68 40.35 11.36 38.7 10 37 C7.92377188 35.92878667 7.92377188 35.92878667 5.80859375 35.13671875 C3.70263672 33.88818359 3.70263672 33.88818359 2 32 C0.8509375 26.9508065 0.96874547 21.95586153 1.0625 16.8125 C1.06322099 14.72667116 1.05300378 12.64113135 1.04063416 10.55534363 C1.03540248 8.67073148 1.0562428 6.78610085 1.07836914 4.90161133 C1.20629028 2.06016228 1.20629028 2.06016228 0 0 Z " fill="#FDFDFD" transform="translate(46,0)"/>
<path d="M0 0 C4.21690386 0.78680177 5.52843079 2.5057125 8 6 C9.1482685 8.296537 9.11561175 9.58313167 9.09765625 12.1328125 C9.09443359 12.93847656 9.09121094 13.74414062 9.08789062 14.57421875 C9.07951172 15.41597656 9.07113281 16.25773437 9.0625 17.125 C9.05798828 17.97449219 9.05347656 18.82398437 9.04882812 19.69921875 C9.03702874 21.79950909 9.01909306 23.8997633 9 26 C6.12397545 26.10852923 3.25209168 26.1875515 0.375 26.25 C-0.43324219 26.28351562 -1.24148437 26.31703125 -2.07421875 26.3515625 C-7.57923813 26.44107501 -10.62439808 25.6587336 -15 22 C-18.92349151 17.53533724 -19.11005416 13.83287025 -19 8 C-17.7133201 10.47438442 -16.67076968 12.87794751 -15.6875 15.5 C-13.85429285 19.30220742 -12.65358895 20.92409719 -9 23 C-5.17014487 23.47873189 -2.79571651 23.34360486 0.75 21.8125 C4.44501816 18.83595759 5.76846146 16.36350472 6.5625 11.6875 C5.79374013 6.64785199 3.29177853 3.77182956 0 0 Z " fill="#181818" transform="translate(51,34)"/>
<path d="M0 0 C1.32 0.33 2.64 0.66 4 1 C3.67 1.66 3.34 2.32 3 3 C2.91360131 5.40838678 2.88432236 7.78733881 2.90234375 10.1953125 C2.9037587 10.90275604 2.90517365 11.61019958 2.90663147 12.33908081 C2.912234 14.60109669 2.92478682 16.86301398 2.9375 19.125 C2.94251468 20.65755065 2.94707764 22.19010286 2.95117188 23.72265625 C2.96220423 27.48180888 2.97947048 31.24088772 3 35 C4.98 35.66 6.96 36.32 9 37 C9.33 39.64 9.66 42.28 10 45 C13.96 42.03 17.92 39.06 22 36 C22.66 36.33 23.32 36.66 24 37 C21.14935363 40.02881176 18.18744908 42.77504073 14.9375 45.375 C13.96103516 46.16003906 13.96103516 46.16003906 12.96484375 46.9609375 C11 48 11 48 7 47 C7 44.03 7 41.06 7 38 C5.824375 38.061875 5.824375 38.061875 4.625 38.125 C2 38 2 38 0 36 C-0.17517747 33.27514272 -0.23149133 30.65340638 -0.1953125 27.9296875 C-0.1924826 27.13345978 -0.18965271 26.33723206 -0.18673706 25.51687622 C-0.1755264 22.96943237 -0.15042062 20.42233789 -0.125 17.875 C-0.11497133 16.14974465 -0.10584528 14.42448381 -0.09765625 12.69921875 C-0.07558422 8.46601086 -0.04104867 4.2330647 0 0 Z " fill="#0E0E0E" transform="translate(0,0)"/>
<path d="M0 0 C5.61 0 11.22 0 17 0 C17.33 1.65 17.66 3.3 18 5 C17.34 5 16.68 5 16 5 C16 4.01 16 3.02 16 2 C14.02 2 12.04 2 10 2 C10 7.94 10 13.88 10 20 C10.99 20 11.98 20 13 20 C13 20.66 13 21.32 13 22 C10.36 22 7.72 22 5 22 C5 21.34 5 20.68 5 20 C5.99 20 6.98 20 8 20 C8 14.06 8 8.12 8 2 C5.69 2 3.38 2 1 2 C1 2.99 1 3.98 1 5 C0.34 5 -0.32 5 -1 5 C-0.67 3.35 -0.34 1.7 0 0 Z " fill="#060606" transform="translate(15,9)"/>
<path d="M0 0 C13.86 0 27.72 0 42 0 C42 0.99 42 1.98 42 3 C27.81 2.67 13.62 2.34 -1 2 C-0.67 1.34 -0.34 0.68 0 0 Z " fill="#020202" transform="translate(4,0)"/>
<path d="M0 0 C1.66611905 -0.042721 3.33382885 -0.04063832 5 0 C6.77449594 1.77449594 6.13030072 4.35017261 6.1328125 6.75 C6.13410156 7.9153125 6.13539062 9.080625 6.13671875 10.28125 C6.13285156 11.5084375 6.12898438 12.735625 6.125 14 C6.12886719 15.2271875 6.13273437 16.454375 6.13671875 17.71875 C6.13542969 18.8840625 6.13414063 20.049375 6.1328125 21.25 C6.13168457 22.32765625 6.13055664 23.4053125 6.12939453 24.515625 C6 27 6 27 5 28 C3.33382885 28.04063832 1.66611905 28.042721 0 28 C0 27.34 0 26.68 0 26 C1.32 26 2.64 26 4 26 C4 18.08 4 10.16 4 2 C2.68 2 1.36 2 0 2 C0 1.34 0 0.68 0 0 Z " fill="#0B0B0B" transform="translate(34,5)"/>
<path d="M0 0 C1.2065625 0.0309375 1.2065625 0.0309375 2.4375 0.0625 C2.4375 0.7225 2.4375 1.3825 2.4375 2.0625 C1.1175 2.0625 -0.2025 2.0625 -1.5625 2.0625 C-1.5625 9.9825 -1.5625 17.9025 -1.5625 26.0625 C-0.2425 26.0625 1.0775 26.0625 2.4375 26.0625 C2.4375 26.7225 2.4375 27.3825 2.4375 28.0625 C0.77138095 28.105221 -0.89632885 28.10313832 -2.5625 28.0625 C-4.33699594 26.28800406 -3.69280072 23.71232739 -3.6953125 21.3125 C-3.69660156 20.1471875 -3.69789063 18.981875 -3.69921875 17.78125 C-3.69535156 16.5540625 -3.69148437 15.326875 -3.6875 14.0625 C-3.69136719 12.8353125 -3.69523438 11.608125 -3.69921875 10.34375 C-3.69792969 9.1784375 -3.69664062 8.013125 -3.6953125 6.8125 C-3.69418457 5.73484375 -3.69305664 4.6571875 -3.69189453 3.546875 C-3.51507037 0.15185108 -3.40919323 0.08315105 0 0 Z " fill="#0B0B0B" transform="translate(11.5625,4.9375)"/>
<path d="M0 0 C2.625 0.375 2.625 0.375 5 1 C5.33 3.64 5.66 6.28 6 9 C9.96 6.03 13.92 3.06 18 0 C18.66 0.33 19.32 0.66 20 1 C17.14935363 4.02881176 14.18744908 6.77504073 10.9375 9.375 C9.96103516 10.16003906 9.96103516 10.16003906 8.96484375 10.9609375 C7 12 7 12 3 11 C3 8.03 3 5.06 3 2 C1.35 2 -0.3 2 -2 2 C-1.34 1.34 -0.68 0.68 0 0 Z " fill="#0A0A0A" transform="translate(4,36)"/>
<path d="M0 0 C0.66 0 1.32 0 2 0 C2.66 1.32 3.32 2.64 4 4 C5.65 3.67 7.3 3.34 9 3 C9.33 2.01 9.66 1.02 10 0 C10.66 0 11.32 0 12 0 C11.50168276 3.68754757 10.89932357 5.60490662 8 8 C8.66 8.33 9.32 8.66 10 9 C10 9.66 10 10.32 10 11 C7.36 11 4.72 11 2 11 C2.226875 10.4225 2.45375 9.845 2.6875 9.25 C3.27412216 6.89558235 3.27412216 6.89558235 1.5625 4.9375 C0.7890625 3.9784375 0.7890625 3.9784375 0 3 C0 2.01 0 1.02 0 0 Z " fill="#1E1E1E" transform="translate(40,43)"/>
<path d="M0 0 C1.67542976 0.28604898 3.34385343 0.61781233 5 1 C5 3.31 5 5.62 5 8 C3.34385343 8.38218767 1.67542976 8.71395102 0 9 C-1 8 -1 8 -1.125 4.5 C-1 1 -1 1 0 0 Z " fill="#444444" transform="translate(44,37)"/>
<path d="M0 0 C0.33 0 0.66 0 1 0 C1 3.63 1 7.26 1 11 C-2.3 11 -5.6 11 -9 11 C-8.236875 10.4225 -7.47375 9.845 -6.6875 9.25 C-3.28656383 6.4027046 -1.40282544 4.20847632 0 0 Z " fill="#EFEFEF" transform="translate(59,49)"/>
<path d="M0 0 C1.28214139 2.46565653 2.37956279 4.92415289 3.4375 7.5 C4.73782783 10.41273434 5.96754669 12.58041273 8 15 C7.01 15 6.02 15 5 15 C0.45030223 10.04885831 -0.12479427 6.61409619 0 0 Z " fill="#202020" transform="translate(32,42)"/>
<path d="M0 0 C0.66 0.33 1.32 0.66 2 1 C-4.44736842 7.63157895 -4.44736842 7.63157895 -8 10 C-9.32 9.67 -10.64 9.34 -12 9 C-8.04 6.03 -4.08 3.06 0 0 Z " fill="#1F1F1F" transform="translate(22,36)"/>
<path d="M0 0 C0.99 0.33 1.98 0.66 3 1 C0.03 3.475 0.03 3.475 -3 6 C-3.99 5.34 -4.98 4.68 -6 4 C-5.195625 3.525625 -4.39125 3.05125 -3.5625 2.5625 C-1.15246512 1.23099846 -1.15246512 1.23099846 0 0 Z " fill="#202020" transform="translate(55,53)"/>
</svg>
